<svg xmlns="http://www.w3.org/2000/svg" width="500" height="500" viewBox="0 0 132.292 132.292"><path d="M25.805 39.84c-9.188-1.893-11.035-5.436-11.317-10.765-.066-4.403 1.083-9.614 1.932-12.145 1.914-4.487 7.997-10.053 16.561-7.453 13.503 5.175 25.475 18.943 54.654 4.14 38.384-21.307 40.027 54.902 8.833 86.397-5.658 6.934-14.951 7.35-16.286-1.38l-5.797-32.571C70.178 43.665 43.44 44.006 25.805 39.84z" fill="#a0def7"/><path d="M32.043 7.27C59.85 24.978 75.849 20.217 94.5 9.22c17.76-8.326 23.96 12.93 22.056 27.326-1.049 15.828-53.066 8.141-51.528 35.718l.196 44.306c.573 9.498-5.019 11.963-9.955 7.027C32.818 101.045 9.743 62.289 14.672 16.833c1.653-8.81 11.662-12.658 17.37-9.564z" opacity=".8" fill="#cbfd42"/></svg>